<?xml version="1.0" encoding="iso-8859-1"?>
<!-- Generator: Adobe Illustrator 19.0.0, SVG Export Plug-In . SVG Version: 6.00 Build 0)  -->
<svg version="1.1" id="Capa_1" xmlns="http://www.w3.org/2000/svg" xmlns:xlink="http://www.w3.org/1999/xlink" x="0px" y="0px"
	 viewBox="0 0 494.237 494.237" style="enable-background:new 0 0 494.237 494.237;" xml:space="preserve">
<g>
	<path style="fill:#1185E0;" d="M309.812,391.314c-4.702,0-9.404-2.09-12.539-6.269c-5.224-6.792-3.657-16.718,3.135-21.943
		c22.465-16.718,36.049-43.363,36.049-71.576c0-49.11-40.229-89.339-89.339-89.339s-89.339,40.229-89.339,89.339
		c0,28.212,13.061,54.335,36.049,71.575c6.792,5.224,8.359,15.151,3.135,21.943c-5.224,6.792-15.151,8.359-21.943,3.135
		c-30.824-23.51-48.588-58.514-48.588-96.653c0-66.351,54.335-120.686,120.686-120.686s120.686,54.335,120.686,120.686
		c0,38.139-18.286,74.188-48.588,96.653C316.082,390.269,312.947,391.314,309.812,391.314z"/>
	<path style="fill:#1185E0;" d="M247.118,155.167c-8.882,0-15.673-6.792-15.673-15.673V55.902c0-8.882,6.792-15.673,15.673-15.673
		s15.673,6.792,15.673,15.673v83.592C262.792,148.376,256,155.167,247.118,155.167z"/>
	<path style="fill:#1185E0;" d="M478.563,303.02h-83.592c-8.882,0-15.673-6.792-15.673-15.673c0-8.882,6.792-15.673,15.673-15.673
		h83.592c8.882,0,15.673,6.792,15.673,15.673C494.237,296.229,487.445,303.02,478.563,303.02z"/>
</g>
<g>
	<path style="fill:#4DCFE0;" d="M448.261,391.837H45.976c-8.882,0-15.673-6.792-15.673-15.673c0-8.882,6.792-15.673,15.673-15.673
		h402.286c8.882,0,15.673,6.792,15.673,15.673C463.935,385.045,457.143,391.837,448.261,391.837z"/>
	<path style="fill:#4DCFE0;" d="M322.873,454.008h-151.51c-8.882,0-15.673-6.792-15.673-15.673s6.792-15.673,15.673-15.673h151.51
		c8.882,0,15.673,6.792,15.673,15.673S331.755,454.008,322.873,454.008z"/>
</g>
<g>
	<path style="fill:#1185E0;" d="M99.265,303.02H15.673C6.792,303.02,0,296.229,0,287.347c0-8.882,6.792-15.673,15.673-15.673h83.592
		c8.882,0,15.673,6.792,15.673,15.673C114.939,296.229,108.147,303.02,99.265,303.02z"/>
	<path style="fill:#1185E0;" d="M352.131,198.008c-4.18,0-7.837-1.567-10.971-4.702c-6.269-6.269-6.269-16.196,0-21.943
		l59.037-59.037c6.269-6.269,16.196-6.269,21.943,0c6.269,6.269,6.269,16.196,0,21.943l-59.037,59.037
		C359.967,196.441,356.31,198.008,352.131,198.008z"/>
	<path style="fill:#1185E0;" d="M142.106,198.008c-4.18,0-7.837-1.567-10.971-4.702l-59.037-59.037
		c-6.269-6.269-6.269-16.196,0-21.943c6.269-6.269,16.196-6.269,21.943,0l59.037,59.037c6.269,6.269,6.269,16.196,0,21.943
		C149.943,196.441,146.286,198.008,142.106,198.008z"/>
</g>
<g>
</g>
<g>
</g>
<g>
</g>
<g>
</g>
<g>
</g>
<g>
</g>
<g>
</g>
<g>
</g>
<g>
</g>
<g>
</g>
<g>
</g>
<g>
</g>
<g>
</g>
<g>
</g>
<g>
</g>
</svg>
