<svg height="512" viewBox="0 0 64 64" width="512" xmlns="http://www.w3.org/2000/svg"><g id="Celsius-hot-summer-thermometer-weather-2" data-name="Celsius-hot-summer-thermometer-weather"><path d="m17 26a2 2 0 1 0 -2 2 2.006 2.006 0 0 0 2-2zm1-3.98a5 5 0 1 1 -6 0v-16.02a3 3 0 0 1 6 0z" fill="#78b9eb"/><path d="m58 61h-38a6 6 0 0 0 6-6v-11.92a12.058 12.058 0 0 1 5-1.08v1a8 8 0 0 0 16 0v-1a12.058 12.058 0 0 1 5 1.08v11.92a6 6 0 0 0 6 6z" fill="#78b9eb"/><path d="m50 14v2h-15v1.5a1.5 1.5 0 0 1 -3 0v-2.5h-5v-1a8 8 0 0 1 14.05-5.23 6.007 6.007 0 0 1 8.95 5.23z" fill="#78b9eb"/><g fill="#006df0"><path d="m35 22a1 1 0 0 0 -1 1v2a1 1 0 0 0 2 0v-2a1 1 0 0 0 -1-1z"/><path d="m43 26a1 1 0 0 0 1-1v-2a1 1 0 0 0 -2 0v2a1 1 0 0 0 1 1z"/><path d="m47 41h-3v-3.21a11.014 11.014 0 0 0 6-9.79v-2h1a3.009 3.009 0 0 0 3-3v-2a3.009 3.009 0 0 0 -3-3h-1v-1h1v-3a7.008 7.008 0 0 0 -7-7 7.08 7.08 0 0 0 -2.73.55 9 9 0 0 0 -15.27 6.45v2h2v2h-1a3.009 3.009 0 0 0 -3 3v2a3.009 3.009 0 0 0 3 3h1v2a11.014 11.014 0 0 0 6 9.79v3.21h-3a13.012 13.012 0 0 0 -13 13v7a1 1 0 0 0 1 1h40a1 1 0 0 0 1-1v-7a13.012 13.012 0 0 0 -13-13zm3-21h1a1 1 0 0 1 1 1v2a1 1 0 0 1 -1 1h-1zm-22 4h-1a1 1 0 0 1 -1-1v-2a1 1 0 0 1 1-1h1zm7-17a6.954 6.954 0 0 1 5.29 2.42 1 1 0 0 0 1.25.22 5.01 5.01 0 0 1 7.46 4.36v1h-14a1 1 0 0 0 -1 1v1.5a.5.5 0 0 1 -1 0v-2.5a1 1 0 0 0 -1-1h-4a7.008 7.008 0 0 1 7-7zm-5 21v-12h1v1.5a2.5 2.5 0 0 0 5 0v-.5h12v11a9 9 0 0 1 -18 0zm5 15a1 1 0 0 0 1-1v-3.43a10.68 10.68 0 0 0 6 0v3.43a1 1 0 0 0 1 1h3a7 7 0 0 1 -14 0zm-15 17v-6a11 11 0 0 1 5-9.21v10.21a5 5 0 0 1 -5 5zm4.89 0a6.97 6.97 0 0 0 2.11-5v-11.24a11.139 11.139 0 0 1 3-.71 9 9 0 0 0 18 0 11.139 11.139 0 0 1 3 .71v11.24a6.97 6.97 0 0 0 2.11 5zm33.11 0a5 5 0 0 1 -5-5v-10.21a11 11 0 0 1 5 9.21z"/><path d="m45 18h2v2h-2z"/><path d="m19 21.55v-15.55a4 4 0 0 0 -8 0v15.55a5.925 5.925 0 0 0 -2 4.45 6 6 0 0 0 12 0 5.925 5.925 0 0 0 -2-4.45zm-4 8.45a3.987 3.987 0 0 1 -2.4-7.18 1 1 0 0 0 .4-.8v-16.02a2 2 0 0 1 4 0v16.02a1 1 0 0 0 .4.8 3.987 3.987 0 0 1 -2.4 7.18z"/><path d="m16 23.184v-16.184h-2v16.184a3 3 0 1 0 2 0zm-1 3.816a1 1 0 1 1 1-1 1 1 0 0 1 -1 1z"/><path d="m8 7h2v2h-2z"/><path d="m5 12h5v2h-5z"/><path d="m8 17h2v2h-2z"/></g></g></svg>